<svg width="263" height="263" viewBox="0 0 263 263" fill="none" xmlns="http://www.w3.org/2000/svg">
<rect x="4" y="3" width="256" height="256" fill="black"/>
<path d="M64.1177 198.882C55.2033 189.968 48.132 179.385 43.3076 167.738C38.4831 156.09 36 143.607 36 131C36 118.393 38.4831 105.91 43.3076 94.2624C48.132 82.6151 55.2033 72.0322 64.1177 63.1177C73.0322 54.2033 83.6151 47.132 95.2624 42.3075C106.91 37.4831 119.393 35 132 35C144.607 35 157.09 37.4831 168.738 42.3076C180.385 47.132 190.968 54.2033 199.882 63.1177L132 131L64.1177 198.882Z" fill="#C7BF00"/>
<path d="M132 8L132 131" stroke="#C7BF00" stroke-width="10" stroke-linecap="round"/>
<path d="M45 44L131.974 130.974" stroke="#C7BF00" stroke-width="10" stroke-linecap="round"/>
<path d="M9 131H132" stroke="#C7BF00" stroke-width="10" stroke-linecap="round"/>
<path d="M18 177.077L132.044 131" stroke="#C7BF00" stroke-width="10" stroke-linecap="round"/>
<path d="M132 131.222L180.06 18" stroke="#C7BF00" stroke-width="10" stroke-linecap="round"/>
<path d="M132.077 131.044L86 17" stroke="#C7BF00" stroke-width="10" stroke-linecap="round"/>
<path d="M132.222 131.06L19 83" stroke="#C7BF00" stroke-width="10" stroke-linecap="round"/>
<path d="M199.882 63.1178C208.797 72.0322 215.868 82.6151 220.692 94.2624C225.517 105.91 228 118.393 228 131C228 143.607 225.517 156.09 220.692 167.738C215.868 179.385 208.797 189.968 199.882 198.882C190.968 207.797 180.385 214.868 168.738 219.692C157.09 224.517 144.607 227 132 227C119.393 227 106.91 224.517 95.2624 219.692C83.6151 214.868 73.0322 207.797 64.1177 198.882L132 131L199.882 63.1178Z" fill="#D9D9D9"/>
<path fill-rule="evenodd" clip-rule="evenodd" d="M31.899 169.339C36.7799 181.79 44.12 193.027 53.5002 202.407L60.6639 195.243C61.782 196.485 62.9336 197.698 64.1177 198.882L132 131L199.882 63.1177C198.698 61.9336 197.485 60.782 196.243 59.6639L204.141 51.7655C194.761 42.3853 183.525 35.0453 171.073 30.1643C158.622 25.2834 145.2 22.9572 131.573 23.3186C117.946 23.68 104.381 26.7219 91.6532 32.2706C78.9252 37.8193 67.2833 45.7661 57.392 55.6574C47.5008 65.5486 39.5539 77.1906 34.0053 89.9185C28.4566 102.646 25.4147 116.211 25.0533 129.838C24.6919 143.465 27.0181 156.887 31.899 169.339ZM196.243 59.6639C188.138 52.3644 178.838 46.4912 168.738 42.3076C157.09 37.4831 144.607 35 132 35C119.393 35 106.91 37.4831 95.2624 42.3076C83.6151 47.132 73.0322 54.2033 64.1177 63.1177C55.2033 72.0322 48.132 82.6151 43.3076 94.2624C38.4831 105.91 36 118.393 36 131C36 143.607 38.4831 156.09 43.3076 167.738C47.4912 177.838 53.3644 187.138 60.6639 195.243L128.821 127.086L196.243 59.6639Z" fill="black"/>
<rect x="256.974" y="0.0264683" width="8.48529" height="362.017" transform="rotate(45 256.974 0.0264683)" fill="black"/>
<circle cx="202.5" cy="129.5" r="12.5" fill="#878484"/>
<circle cx="115" cy="192" r="15" fill="#A7A7A7"/>
<circle cx="166" cy="127" r="10" fill="#A7A7A7"/>
<circle cx="171" cy="177" r="15" fill="#716868"/>
</svg>
